<svg width="241.1275390625px" height="120.85244140625px" xmlns="http://www.w3.org/2000/svg" viewBox="129.43623046875 14.573779296875003 241.1275390625 120.85244140625" style="background: none;" preserveAspectRatio="xMidYMid"><defs><filter id="editing-hole" x="-100%" y="-100%" width="300%" height="300%"><feFlood flood-color="#ffcbde" result="black"></feFlood><feMorphology operator="dilate" radius="2" in="SourceGraphic" result="erode"></feMorphology><feGaussianBlur in="erode" stdDeviation="4" result="blur"></feGaussianBlur><feOffset in="blur" dx="2" dy="2" result="offset"></feOffset><feComposite operator="atop" in="offset" in2="black" result="merge"></feComposite><feComposite operator="in" in="merge" in2="SourceGraphic" result="inner-shadow"></feComposite></filter></defs><g filter="url(#editing-hole)"><g transform="translate(169.39999663829803, 103.21000099182129)"><path d="M0.87 0L0.87 0Q2.91 0 4.43-1.67L4.43-1.67L4.43-1.67Q5.95-3.35 5.95-7.07L5.95-7.07L5.95-40.24L1.80-40.36L1.80-43.40L9.49-43.40L9.49-7.32L9.49-7.32Q9.49-2.73 7.41-0.22L7.41-0.22L7.41-0.22Q5.33 2.29 1.67 2.29L1.67 2.29L0.87 0ZM40.11-11.41L40.11-11.41Q40.11-6.20 37.26-2.79L37.26-2.79L37.26-2.79Q34.41 0.62 28.64 0.62L28.64 0.62L28.64 0.62Q22.88 0.62 19.93-2.82L19.93-2.82L19.93-2.82Q16.99-6.26 16.99-11.41L16.99-11.41L16.99-19.59L16.99-19.59Q16.99-25.48 19.99-28.61L19.99-28.61L19.99-28.61Q23.00-31.74 28.64-31.74L28.64-31.74L28.64-31.74Q34.04-31.74 37.08-28.49L37.08-28.49L37.08-28.49Q40.11-25.23 40.11-19.59L40.11-19.59L40.11-11.41ZM36.64-19.59L36.64-19.59Q36.64-24.24 34.50-26.41L34.50-26.41L34.50-26.41Q32.36-28.58 28.64-28.58L28.64-28.58L28.64-28.58Q24.80-28.58 22.63-26.41L22.63-26.41L22.63-26.41Q20.46-24.24 20.46-19.59L20.46-19.59L20.46-10.79L20.46-10.79Q20.46-7.07 22.66-4.77L22.66-4.77L22.66-4.77Q24.86-2.48 28.64-2.48L28.64-2.48L28.64-2.48Q32.49-2.48 34.56-4.74L34.56-4.74L34.56-4.74Q36.64-7.01 36.64-10.79L36.64-10.79L36.64-19.59ZM60.26 10.35L60.26 10.35Q64.42 8.80 64.42 3.91L64.42 3.91L64.42-3.04L64.42-3.04Q63.24-1.05 60.88-0.15L60.88-0.15L60.88-0.15Q58.53 0.74 55.80 0.74L55.80 0.74L55.80 0.74Q50.34 0.74 47.40-2.20L47.40-2.20L47.40-2.20Q44.45-5.15 44.45-10.91L44.45-10.91L44.45-31.06L47.80-31.06L47.80-10.29L47.80-10.29Q47.80-6.32 49.97-4.37L49.97-4.37L49.97-4.37Q52.14-2.42 55.80-2.42L55.80-2.42L55.80-2.42Q59.64-2.42 62-4.34L62-4.34L62-4.34Q64.36-6.26 64.36-10.29L64.36-10.29L64.36-22.51L64.36-22.51Q64.36-25.48 64.54-26.94L64.54-26.94L64.54-26.94Q64.73-28.40 65.69-29.67L65.69-29.67L65.69-29.67Q66.65-30.94 68.88-31.62L68.88-31.62L69.81-29.26L69.81-29.26Q67.70-28.33 67.70-24.92L67.70-24.92L67.70 3.78L67.70 3.78Q67.70 7.56 66.22 9.73L66.22 9.73L66.22 9.73Q64.73 11.90 61.19 13.02L61.19 13.02L60.26 10.35ZM94.86-2.17L94.86-2.17Q92.63-0.74 89.78 0L89.78 0L89.78 0Q86.92 0.74 84.07 0.74L84.07 0.74L84.07 0.74Q79.48 0.74 76.79-1.52L76.79-1.52L76.79-1.52Q74.09-3.78 74.09-8.31L74.09-8.31L74.09-21.02L74.09-21.02Q74.09-26.04 77.22-28.83L77.22-28.83L77.22-28.83Q80.35-31.62 85.50-31.62L85.50-31.62L85.50-31.62Q90.64-31.62 93.53-28.86L93.53-28.86L93.53-28.86Q96.41-26.10 96.41-21.20L96.41-21.20L96.41-13.14L77.56-12.09L77.56-8.31L77.56-8.31Q77.56-5.33 79.48-3.84L79.48-3.84L79.48-3.84Q81.41-2.36 84.51-2.36L84.51-2.36L84.51-2.36Q88.85-2.36 93.50-4.84L93.50-4.84L94.86-2.17ZM92.94-21.64L92.94-21.64Q92.94-25.48 90.52-27.06L90.52-27.06L90.52-27.06Q88.10-28.64 85.44-28.64L85.44-28.64L85.44-28.64Q82.03-28.64 79.79-26.78L79.79-26.78L79.79-26.78Q77.56-24.92 77.56-20.96L77.56-20.96L77.56-15.50L92.94-16.24L92.94-21.64ZM102.61 0L102.61-31.06L106.08-31.06L105.90-28.89L105.90-28.89Q108.81-31.62 113.52-31.62L113.52-31.62L113.52-31.62Q115.20-31.62 118.11-31.06L118.11-31.06L117.18-27.90L117.18-27.90Q115.20-28.52 113.03-28.52L113.03-28.52L113.03-28.52Q110.17-28.52 108.13-27.47L108.13-27.47L108.13-27.47Q106.08-26.41 106.08-24.30L106.08-24.30L106.08 0L102.61 0ZM124.81-33.36L127.97-40.67L127.97-40.67Q128.59-42.10 130.08-42.10L130.08-42.10L130.08-42.10Q131.01-42.10 131.56-41.48L131.56-41.48L131.56-41.48Q132.12-40.86 132.12-40.11L132.12-40.11L132.12-40.11Q132.12-39.56 131.81-39.06L131.81-39.06L127.53-33.36L124.81-33.36ZM124.31 0L124.31-31.06L127.78-31.06L127.78 0L124.31 0ZM160.33 0L160.33 0Q153.64 0.68 150.66 0.68L150.66 0.68L150.66 0.68Q144.15 0.68 140.31-1.74L140.31-1.74L140.31-1.74Q136.46-4.15 136.46-10.48L136.46-10.48L136.46-15.62L136.46-15.62Q136.46-21.76 140.74-23.87L140.74-23.87L140.74-23.87Q142.79-24.92 145.95-24.92L145.95-24.92L145.95-24.92Q148.86-24.92 151.84-23.96L151.84-23.96L151.84-23.96Q154.81-23.00 156.86-21.45L156.86-21.45L156.86-21.45Q156.86-24.86 154.88-26.88L154.88-26.88L154.88-26.88Q152.89-28.89 147.25-28.89L147.25-28.89L147.44-31.56L147.44-31.56Q153.39-31.56 156.21-29.67L156.21-29.67L156.21-29.67Q159.03-27.78 159.68-25.17L159.68-25.17L159.68-25.17Q160.33-22.57 160.33-18.48L160.33-18.48L160.33 0ZM156.86-18.79L156.86-18.79Q154.32-19.96 151.43-20.83L151.43-20.83L151.43-20.83Q148.55-21.70 146.13-21.70L146.13-21.70L146.13-21.70Q139.87-21.70 139.87-15.44L139.87-15.44L139.87-10.04L139.87-10.04Q139.87-6.01 142.66-4.18L142.66-4.18L142.66-4.18Q145.45-2.36 150.60-2.36L150.60-2.36L150.60-2.36Q153.26-2.36 156.86-2.85L156.86-2.85L156.86-18.79Z" fill="#f2bed1"></path></g></g><style>text {
  font-size: 64px;
  font-family: Arial Black;
  dominant-baseline: central;
  text-anchor: middle;
}</style></svg>
