<svg width="554.90498046875px" height="263.992578125px" xmlns="http://www.w3.org/2000/svg" viewBox="-27.452490234374977 -56.99628906250001 554.90498046875 263.992578125" style="background: none;" preserveAspectRatio="xMidYMid"><defs><filter id="editing-hole" x="-100%" y="-100%" width="300%" height="300%"><feFlood flood-color="#ffcbde" result="black"></feFlood><feMorphology operator="dilate" radius="2" in="SourceGraphic" result="erode"></feMorphology><feGaussianBlur in="erode" stdDeviation="4" result="blur"></feGaussianBlur><feOffset in="blur" dx="2" dy="2" result="offset"></feOffset><feComposite operator="atop" in="offset" in2="black" result="merge"></feComposite><feComposite operator="in" in="merge" in2="SourceGraphic" result="inner-shadow"></feComposite></filter></defs><g filter="url(#editing-hole)"><g transform="translate(55.00000619888306, 143.25)"><path d="M2.10 0L2.10 0Q7.05 0 10.72-4.05L10.72-4.05L10.72-4.05Q14.40-8.10 14.40-17.10L14.40-17.10L14.40-97.35L4.35-97.65L4.35-105L22.95-105L22.95-17.70L22.95-17.70Q22.95-6.60 17.93-0.53L17.93-0.53L17.93-0.53Q12.90 5.55 4.05 5.55L4.05 5.55L2.10 0ZM97.05-27.60L97.05-27.60Q97.05-15 90.15-6.75L90.15-6.75L90.15-6.75Q83.25 1.50 69.30 1.50L69.30 1.50L69.30 1.50Q55.35 1.50 48.22-6.83L48.22-6.83L48.22-6.83Q41.10-15.15 41.10-27.60L41.10-27.60L41.10-47.40L41.10-47.40Q41.10-61.65 48.38-69.22L48.38-69.22L48.38-69.22Q55.65-76.80 69.30-76.80L69.30-76.80L69.30-76.80Q82.35-76.80 89.70-68.92L89.70-68.92L89.70-68.92Q97.05-61.05 97.05-47.40L97.05-47.40L97.05-27.60ZM88.65-47.40L88.65-47.40Q88.65-58.65 83.47-63.90L83.47-63.90L83.47-63.90Q78.30-69.15 69.30-69.15L69.30-69.15L69.30-69.15Q60-69.15 54.75-63.90L54.75-63.90L54.75-63.90Q49.50-58.65 49.50-47.40L49.50-47.40L49.50-26.10L49.50-26.10Q49.50-17.10 54.83-11.55L54.83-11.55L54.83-11.55Q60.15-6 69.30-6L69.30-6L69.30-6Q78.60-6 83.63-11.47L83.63-11.47L83.63-11.47Q88.65-16.95 88.65-26.10L88.65-26.10L88.65-47.40ZM145.80 25.05L145.80 25.05Q155.85 21.30 155.85 9.45L155.85 9.45L155.85-7.35L155.85-7.35Q153-2.55 147.30-0.38L147.30-0.38L147.30-0.38Q141.60 1.80 135 1.80L135 1.80L135 1.80Q121.80 1.80 114.67-5.33L114.67-5.33L114.67-5.33Q107.55-12.45 107.55-26.40L107.55-26.40L107.55-75.15L115.65-75.15L115.65-24.90L115.65-24.90Q115.65-15.30 120.90-10.57L120.90-10.57L120.90-10.57Q126.15-5.85 135-5.85L135-5.85L135-5.85Q144.30-5.85 150-10.50L150-10.50L150-10.50Q155.70-15.15 155.70-24.90L155.70-24.90L155.70-54.45L155.70-54.45Q155.70-61.65 156.15-65.17L156.15-65.17L156.15-65.17Q156.60-68.70 158.93-71.77L158.93-71.77L158.93-71.77Q161.25-74.85 166.65-76.50L166.65-76.50L168.90-70.80L168.90-70.80Q163.80-68.55 163.80-60.30L163.80-60.30L163.80 9.15L163.80 9.15Q163.80 18.30 160.20 23.55L160.20 23.55L160.20 23.55Q156.60 28.80 148.05 31.50L148.05 31.50L145.80 25.05ZM229.50-5.25L229.50-5.25Q224.10-1.80 217.20 0L217.20 0L217.20 0Q210.30 1.80 203.40 1.80L203.40 1.80L203.40 1.80Q192.30 1.80 185.78-3.67L185.78-3.67L185.78-3.67Q179.25-9.15 179.25-20.10L179.25-20.10L179.25-50.85L179.25-50.85Q179.25-63 186.82-69.75L186.82-69.75L186.82-69.75Q194.40-76.50 206.85-76.50L206.85-76.50L206.85-76.50Q219.30-76.50 226.28-69.83L226.28-69.83L226.28-69.83Q233.25-63.15 233.25-51.30L233.25-51.30L233.25-31.80L187.65-29.25L187.65-20.10L187.65-20.10Q187.65-12.90 192.30-9.30L192.30-9.30L192.30-9.30Q196.95-5.70 204.45-5.70L204.45-5.70L204.45-5.70Q214.95-5.70 226.20-11.70L226.20-11.70L229.50-5.25ZM224.85-52.35L224.85-52.35Q224.85-61.65 219-65.47L219-65.47L219-65.47Q213.15-69.30 206.70-69.30L206.70-69.30L206.70-69.30Q198.45-69.30 193.05-64.80L193.05-64.80L193.05-64.80Q187.65-60.30 187.65-50.70L187.65-50.70L187.65-37.50L224.85-39.30L224.85-52.35ZM248.25 0L248.25-75.15L256.65-75.15L256.20-69.90L256.20-69.90Q263.25-76.50 274.65-76.50L274.65-76.50L274.65-76.50Q278.70-76.50 285.75-75.15L285.75-75.15L283.50-67.50L283.50-67.50Q278.70-69 273.45-69L273.45-69L273.45-69Q266.55-69 261.60-66.45L261.60-66.45L261.60-66.45Q256.65-63.90 256.65-58.80L256.65-58.80L256.65 0L248.25 0ZM301.95-80.70L309.60-98.40L309.60-98.40Q311.10-101.85 314.70-101.85L314.70-101.85L314.70-101.85Q316.95-101.85 318.30-100.35L318.30-100.35L318.30-100.35Q319.65-98.85 319.65-97.05L319.65-97.05L319.65-97.05Q319.65-95.70 318.90-94.50L318.90-94.50L308.55-80.70L301.95-80.70ZM300.75 0L300.75-75.15L309.15-75.15L309.15 0L300.75 0ZM387.90 0L387.90 0Q371.70 1.65 364.50 1.65L364.50 1.65L364.50 1.65Q348.75 1.65 339.45-4.20L339.45-4.20L339.45-4.20Q330.15-10.05 330.15-25.35L330.15-25.35L330.15-37.80L330.15-37.80Q330.15-52.65 340.50-57.75L340.50-57.75L340.50-57.75Q345.45-60.30 353.10-60.30L353.10-60.30L353.10-60.30Q360.15-60.30 367.35-57.97L367.35-57.97L367.35-57.97Q374.55-55.65 379.50-51.90L379.50-51.90L379.50-51.90Q379.50-60.15 374.70-65.02L374.70-65.02L374.70-65.02Q369.90-69.90 356.25-69.90L356.25-69.90L356.70-76.35L356.70-76.35Q371.10-76.35 377.93-71.77L377.93-71.77L377.93-71.77Q384.75-67.20 386.33-60.90L386.33-60.90L386.33-60.90Q387.90-54.60 387.90-44.70L387.90-44.70L387.90 0ZM379.50-45.45L379.50-45.45Q373.35-48.30 366.38-50.40L366.38-50.40L366.38-50.40Q359.40-52.50 353.55-52.50L353.55-52.50L353.55-52.50Q338.40-52.50 338.40-37.35L338.40-37.35L338.40-24.30L338.40-24.30Q338.40-14.55 345.15-10.13L345.15-10.13L345.15-10.13Q351.90-5.70 364.35-5.70L364.35-5.70L364.35-5.70Q370.80-5.70 379.50-6.90L379.50-6.90L379.50-45.45Z" fill="#f2bed1"></path></g></g><style>text {
  font-size: 64px;
  font-family: Arial Black;
  dominant-baseline: central;
  text-anchor: middle;
}</style></svg>
